<?xml version="1.0" standalone="no"?><!DOCTYPE svg PUBLIC "-//W3C//DTD SVG 1.1//EN" "http://www.w3.org/Graphics/SVG/1.1/DTD/svg11.dtd"><svg t="1775790172902" class="icon" viewBox="0 0 1024 1024" version="1.1" xmlns="http://www.w3.org/2000/svg" p-id="11798" xmlns:xlink="http://www.w3.org/1999/xlink" width="128" height="128"><path d="M953.5 493.9C942 429.8 912.6 380.7 865.9 348c-31.5-22.1-67.9-35.4-108.5-39.9 25.5-52.2 24.3-107.2 24.2-110.5l-0.6-19.2-16.5-9.8c-37.3-22.2-80.6-22-121.9 0.4-11.6-35.8-28.2-62.6-49.8-80-28.5-23-55.3-21.2-60.4-20.6l-4 0.5-3.8 1.4c-24.3 8.8-53.3 32.2-59.8 93.2-12.3-4.9-25.9-8.3-40.5-10.2-37.2-4.9-69.1 1.4-72.6 2.1l-27.3 5.7-1.3 73.4c-0.4 19.3 15 35.3 34.4 35.6 19.3 0.4 35.3-15 35.6-34.4l0.3-14.4c6.7-0.1 14.2 0.2 21.8 1.2 22 2.9 35.3 10.3 43.4 18 11.5 10.9 27.7 15.2 42.9 10.8l0.8-0.2c19.8-5.7 33-24.5 31.7-45.1-0.4-6.9-0.7-14.3-0.4-21.9 0.6-22.9 5-37.6 10.1-44.3 2.6 1.4 6 3.7 9.9 7.8 10.5 11.1 24.7 35.3 32.7 87.5 4.6 29.5 41.5 40.1 61 17.6 0.1-0.1 11.8-13.1 28.7-22.3 14-7.6 25.2-9.3 34.1-8.3-3.2 26.1-13.3 68.3-44.8 91.2l0.3 0.4c-14.4 7.6-22.3 24.6-17.3 41.2 5.1 16.7 21.7 27.1 39 24.4 34.7-5.5 91.1-7.1 138.4 25.9 73.9 51.7 64.4 160.1 60.3 206.4l-0.1 0.9c-8 90.4-40.5 158-96.6 201-50 38.3-120.9 41.7-276.6 45.6-156.3 3.9-234.8 5.9-285.6-33.2-82.1-63.1-86.4-176.5-85.8-209.7v-0.1c0.6-32.1 2.5-129.8 84.9-196.9 40.1-32.6 88.9-50.5 145.2-53.4 20.1-1 38.1 0.2 52.1 1.9 17.4 2.1 33.7-8.9 38.2-25.9 5.4-20.5-8.6-41.1-29.7-43.7-17.4-2.1-39.3-3.5-64.1-2.3-70.4 3.5-134.7 27.4-185.8 69-46 37.4-78.2 86.3-95.8 145.2-13.8 46.5-14.6 87.2-14.9 104.6v0.1c-0.4 21.6 0.9 65 14.2 113.1 18 65.2 51.3 116.8 98.9 153.4 34.3 26.4 75.3 40.7 132.8 46.3 25 2.5 52.6 3.3 84.3 3.3 32.7 0 69.8-0.9 113-2 86-2.2 141.6-4 189.3-11 55.1-8.1 94.6-23.2 128.2-49 46.6-35.7 80.9-84.6 102.1-145.4 16.5-47.4 20.2-89.3 21.6-105l0.1-0.9c2.3-27.4 6.4-73.8-2.4-123.6z" p-id="11799" fill="#000000"></path><path d="M330.1 445.4c-12.5 9.6-29.7 24.4-45.9 43.7-35 41.8-51 87.5-47 133.5 1 12.1 12.6 20.4 24.4 17.7 9.7-2.2 16.3-11.3 15.4-21.3-3.1-35.2 9.4-69.9 37.2-103.4 14.1-17 29.4-30.2 40.3-38.5 8.1-6.2 10.2-17.5 4.9-26.2-6.3-10.1-19.9-12.7-29.3-5.5zM359.3 451l9.7 15.9zM358.6 449.8l0.7 1.2-0.7-1.2z" p-id="11800" fill="#000000"></path><path d="M258.245126 714.412941a22.4 22.4 0 1 0 31.677831-31.678937 22.4 22.4 0 1 0-31.677831 31.678937Z" p-id="11801" fill="#000000"></path></svg>