<?xml version="1.0" standalone="no"?><!DOCTYPE svg PUBLIC "-//W3C//DTD SVG 1.1//EN" "http://www.w3.org/Graphics/SVG/1.1/DTD/svg11.dtd"><svg t="1775790144691" class="icon" viewBox="0 0 1024 1024" version="1.1" xmlns="http://www.w3.org/2000/svg" p-id="9281" xmlns:xlink="http://www.w3.org/1999/xlink" width="128" height="128"><path d="M511.872 83.2c236.8 0 428.672 192 428.672 428.8a424.512 424.512 0 0 1-78.592 246.336l-5.888 7.68 60.224 51.008c20.16 17.28 28.608 44.288 22.592 69.76l-2.56 8.384a70.4 70.4 0 0 1-66.176 45.632H511.872c-236.8 0-428.672-192-428.672-428.8a428.8 428.8 0 0 1 428.672-428.8z m0 89.6A339.2 339.2 0 0 0 172.8 512c0 187.392 151.808 339.2 339.072 339.2h306.176l-89.6-75.776 32.192-34.432A334.912 334.912 0 0 0 850.88 512c0-187.392-151.68-339.2-339.008-339.2zM577.28 437.12c42.752 19.584-15.552 136.32-19.648 155.392-4.16 19.008-31.232 154.816 58.368 77.44l1.536-1.024c1.28-0.832 3.136-1.92 5.12-3.008l2.88-1.408c8.064-3.456 12.48-0.64-29.248 44.096-63.808 68.608-145.28 90.24-154.816 38.72 6.72-78.528 19.712-156.352 38.72-232.832 1.984-17.6-19.712 0-19.712 0s-63.104 44.8-77.44 19.712c-1.92-4.096 19.776-19.712 19.776-19.712S534.528 417.408 577.28 437.12z m-5.952-194.688a67.904 67.904 0 1 1-7.36 135.616 67.904 67.904 0 0 1 7.36-135.68z" p-id="9282"></path></svg>