<?xml version="1.0" standalone="no"?><!DOCTYPE svg PUBLIC "-//W3C//DTD SVG 1.1//EN" "http://www.w3.org/Graphics/SVG/1.1/DTD/svg11.dtd"><svg t="1775898539463" class="icon" viewBox="0 0 1024 1024" version="1.1" xmlns="http://www.w3.org/2000/svg" p-id="5059" xmlns:xlink="http://www.w3.org/1999/xlink" width="256" height="256"><path d="M963.925333 326.997333L697.002667 60.074667a25.6 25.6 0 0 0-43.52 21.845333l14.506666 99.498667-273.066666 151.381333c-91.477333-45.738667-170.666667-36.693333-234.496 27.306667a25.941333 25.941333 0 0 0 0 36.352L327.68 563.2 57.685333 930.645333a25.6 25.6 0 0 0 35.84 35.669334l366.250667-270.677334 167.765333 167.936a25.941333 25.941333 0 0 0 36.352 0c79.530667-79.701333 58.538667-165.546667 26.965334-233.813333l152.064-273.066667 99.157333 14.165334a25.6 25.6 0 0 0 26.624-13.824 25.941333 25.941333 0 0 0-4.778667-30.037334z" fill="#000000" p-id="5060"></path></svg>