<?xml version="1.0" standalone="no"?><!DOCTYPE svg PUBLIC "-//W3C//DTD SVG 1.1//EN" "http://www.w3.org/Graphics/SVG/1.1/DTD/svg11.dtd"><svg t="1768895355389" class="icon" viewBox="0 0 1024 1024" version="1.1" xmlns="http://www.w3.org/2000/svg" p-id="2961" xmlns:xlink="http://www.w3.org/1999/xlink" width="32" height="32"><path d="M956.964571 448L596.443429 72.740571A116.150857 116.150857 0 0 0 512 36.571429c-32.109714 0-62.025143 12.8-84.48 36.132571L67.072 448c-37.193143 38.729143-32.402286 72.192-26.258286 86.198857 4.388571 9.910857 19.2 37.193143 61.805715 37.193143H155.428571v288.731429c0 65.536 47.067429 127.268571 113.956572 127.268571h153.490286v-305.554286c0-32.768-4.973714-51.017143 28.489142-51.017143h121.270858c33.462857 0 28.525714 18.249143 28.525714 51.017143V987.428571h153.453714c66.889143 0 113.956571-61.732571 113.956572-127.268571v-288.731429h52.845714c42.605714 0 57.417143-27.282286 61.805714-37.193142 6.144-14.006857 10.934857-47.469714-26.258286-86.198858zM921.380571 512h-112.237714v348.16c0 32.731429-21.101714 67.84-54.491428 67.84h-94.098286v-246.125714c0-65.572571-20.992-110.445714-87.917714-110.445715h-121.270858c-66.925714 0-87.917714 44.873143-87.917714 110.445715v246.125714H269.385143c-33.426286 0-54.491429-35.108571-54.491429-67.84V512H102.582857c-1.097143 0-2.048-4.096-2.889143-4.132571 2.048-3.620571 5.595429-12.726857 11.483429-18.870858l360.521143-375.04c10.788571-11.227429 25.965714-18.102857 40.740571-17.956571 14.701714-0.146286 29.001143 6.729143 39.789714 17.956571l360.521143 375.04c5.851429 6.144 9.435429 15.250286 11.483429 18.870858-0.877714 0.036571-1.828571 4.132571-2.889143 4.132571z" p-id="2962"></path></svg>