<?xml version="1.0" standalone="no"?><!DOCTYPE svg PUBLIC "-//W3C//DTD SVG 1.1//EN" "http://www.w3.org/Graphics/SVG/1.1/DTD/svg11.dtd"><svg t="1768900560347" class="icon" viewBox="0 0 1024 1024" version="1.1" xmlns="http://www.w3.org/2000/svg" p-id="12061" xmlns:xlink="http://www.w3.org/1999/xlink" width="32" height="32"><path d="M512 967.111111h-1.896296c-44.562963-0.474074-86.281481-18.299259-117.475556-50.157037s-48.071111-73.955556-47.597037-118.518518c0.18963-15.739259 13.084444-28.34963 28.728889-28.16 15.739259 0.18963 28.34963 13.084444 28.16 28.728888-0.284444 29.392593 10.808889 57.173333 31.383704 78.127408 20.574815 21.048889 48.071111 32.711111 77.463703 33.09037 60.681481 0.663704 110.554074-48.165926 111.217778-108.752592 0.18963-15.739259 13.084444-28.34963 28.728889-28.16 15.739259 0.18963 28.34963 13.084444 28.16 28.728889-1.042963 91.401481-75.662222 165.072593-166.874074 165.072592zM766.482963 561.777778c-15.739259 0-28.444444-12.705185-28.444444-28.444445V431.502222c0-124.681481-101.357037-226.038519-226.038519-226.038518S285.961481 306.820741 285.961481 431.502222v101.831111c0 15.739259-12.705185 28.444444-28.444444 28.444445s-28.444444-12.705185-28.444444-28.444445V431.502222c0-75.567407 29.392593-146.583704 82.868148-200.059259 53.475556-53.475556 124.491852-82.868148 200.059259-82.868148s146.583704 29.392593 200.059259 82.868148c53.475556 53.475556 82.868148 124.491852 82.868148 200.059259v101.831111c0 15.644444-12.705185 28.444444-28.444444 28.444445z" p-id="12062"></path><path d="M858.074074 826.405926c-7.300741 0-14.601481-2.74963-20.100741-8.343704-21.143704-21.143704-65.801481-76.041481-78.127407-112.924444-19.721481-59.06963-21.807407-143.454815-21.807407-176.924445 0-15.739259 12.705185-28.444444 28.444444-28.444444s28.444444 12.705185 28.444444 28.444444c0 64 7.111111 123.448889 18.868149 159.004445 7.86963 23.703704 43.994074 70.257778 64.379259 90.642963 11.093333 11.093333 11.093333 29.108148 0 40.201481-5.499259 5.594074-12.8 8.343704-20.100741 8.343704zM165.925926 826.405926c-7.300741 0-14.601481-2.74963-20.100741-8.343704-11.093333-11.093333-11.093333-29.108148 0-40.201481 20.385185-20.385185 56.50963-66.939259 64.379259-90.642963 11.851852-35.460741 18.868148-94.90963 18.868149-159.004445 0-15.739259 12.705185-28.444444 28.444444-28.444444s28.444444 12.705185 28.444444 28.444444c0 33.564444-2.085926 117.854815-21.807407 176.924445-12.325926 36.882963-56.983704 91.780741-78.127407 112.924444-5.594074 5.594074-12.894815 8.343704-20.100741 8.343704z" p-id="12063"></path><path d="M858.074074 826.405926H176.071111c-15.739259 0-28.444444-12.705185-28.444444-28.444445s12.705185-28.444444 28.444444-28.444444H858.074074c15.739259 0 28.444444 12.705185 28.444445 28.444444s-12.705185 28.444444-28.444445 28.444445zM512 195.223704c-15.739259 0-28.444444-12.705185-28.444444-28.444445V85.428148c0-15.739259 12.705185-28.444444 28.444444-28.444444s28.444444 12.705185 28.444444 28.444444V166.874074c0 15.644444-12.705185 28.34963-28.444444 28.34963zM661.048889 460.041481c-15.739259 0-28.444444-12.705185-28.444445-28.444444 0-63.525926-51.674074-115.2-115.2-115.2-15.739259 0-28.444444-12.705185-28.444444-28.444444s12.705185-28.444444 28.444444-28.444445c94.90963 0 172.088889 77.179259 172.088889 172.088889 0 15.739259-12.8 28.444444-28.444444 28.444444z" p-id="12064"></path></svg>